<svg xmlns="http://www.w3.org/2000/svg" viewBox="0 0 164 13">
    <title>company</title>
    <g style="fill: rgb(0, 0, 0)">
        <path d="M 0 12.5 C 2.7 9.4 3.8 7 3.8 2.9 V 2.7 H 1.1 c -0.4 0 -0.5 -0.1 -0.5 -0.5 h 3.2 v -2 h 0.5 c 0.8 0 1.1 0.3 1.1 1 v 1 h 3.1 c 1.2 0 1.7 0.5 1.7 1.6 V 11 c 0 0.6 0.2 0.9 0.8 0.9 h 0.2 c 0.7 0 1 -0.5 1.2 -1.8 l 0.5 0.1 c 0 1.7 -0.4 2.4 -1.8 2.4 h -0.7 c -1.2 0 -1.7 -0.5 -1.7 -1.7 V 3.7 c 0 -0.7 -0.3 -1 -1.1 -1 H 5.4 v 0.3 c 0 5.2 -1.7 7.9 -5.1 10 L 0 12.5 z M 13.8 4.3 L 14 3.9 c 1.4 0 3.1 1 3.1 2.2 c 0.1 0.5 -0.3 0.9 -0.7 1 c -0.1 0 -0.1 0 -0.2 0 C 15.5 6.1 14.7 5.2 13.8 4.3 z M 13.9 11.8 c 1.4 -1.5 2.6 -3 3.7 -4.7 l 0.5 0.2 c -0.2 1.4 -0.7 2.7 -1.3 4 c -0.5 0.9 -1 1.4 -1.8 1.4 c -0.5 0.1 -0.9 -0.3 -1 -0.8 C 13.9 11.9 13.9 11.9 13.9 11.8 z M 14.4 0.9 l 0.2 -0.4 c 1.6 0 3.1 0.9 3.1 1.9 c 0.1 0.5 -0.2 0.9 -0.7 1 c 0 0 -0.1 0 -0.1 0 C 16.2 2.5 15.3 1.7 14.4 0.9 z M 18 1.4 h 7.7 c 0.4 0 0.6 0.1 0.6 0.5 h -3.3 v 10 h 3.2 c 0.4 0 0.5 0.1 0.5 0.5 h -8.9 c -0.4 0 -0.5 -0.1 -0.5 -0.5 h 4 v -10 h -2.8 C 18.1 1.9 18 1.7 18 1.4 z M 27.7 5.4 c 0.1 0 0.2 0 0.2 0 c 0.6 -1.1 1.1 -2.2 1.6 -3.4 c 0.6 -0.1 0.9 0.3 0.9 1 c -0.1 1 -0.7 1.9 -1.5 2.5 c 0.4 0 0.8 0 1.3 -0.1 c 0.3 -0.6 0.6 -1.3 0.9 -1.9 c 0.6 0 0.9 0.4 0.9 1 c 0 1 -1 2.5 -2.6 3.9 c 0.6 -0.1 1.2 -0.1 1.7 -0.2 c 0.2 -0.5 0.4 -0.9 0.5 -1.4 c 0.6 -0.1 1 0.3 1 1 c -0.1 1 -0.5 1.9 -1.2 2.7 c -1 1.1 -2.2 2 -3.5 2.5 l -0.2 -0.4 c 1.1 -0.9 2.1 -2 2.9 -3.3 c -0.5 0.2 -1.1 0.3 -1.6 0.3 c -0.8 0 -1.2 -0.4 -1 -1.2 h 0.5 c 0.4 -0.6 0.8 -1.3 1.2 -2 c -0.4 0.1 -0.7 0.1 -1.1 0.1 C 27.8 6.6 27.5 6.1 27.7 5.4 L 27.7 5.4 z M 27.9 1.4 h 5.4 c -0.2 -0.3 -0.4 -0.6 -0.7 -0.9 l 0.3 -0.4 c 1.3 -0.1 2.5 0.2 2.5 1 c 0 0.1 0 0.2 -0.1 0.3 h 4.4 c 0.4 0 0.5 0.2 0.5 0.5 H 28.4 C 28.1 1.9 27.9 1.7 27.9 1.4 L 27.9 1.4 z M 33.1 5.9 c -0.3 0.2 -0.6 0.3 -0.9 0.4 L 32 5.9 c 0.9 -1.2 1.7 -2.5 2.3 -3.9 c 0.5 0 1 0.3 1 0.8 c 0 0.1 0 0.1 0 0.2 c 0 0.4 -0.1 0.7 -0.3 1 h 1.7 c -0.3 -0.5 -0.6 -1 -0.9 -1.4 l 0.3 -0.4 c 1.1 0 2 0.6 2 1.4 c 0 0.1 0 0.3 -0.1 0.4 h 1.7 c 0.4 0 0.5 0.2 0.5 0.5 h -2.3 v 2.1 h 1.6 c 0.3 0 0.5 0.2 0.5 0.5 h -2.1 v 2.2 h 1.6 c 0.2 0 0.5 0.1 0.5 0.4 c 0 0 0 0.1 0 0.1 h -2.1 V 12 h 1.9 c 0.4 0 0.5 0.2 0.5 0.5 h -5.9 v 0.4 h -1.4 V 5.9 z M 34.5 4.8 v 1.8 h 2 V 4.5 h -1.7 L 34.5 4.8 z M 34.5 9.3 h 2 V 7.1 h -2 V 9.3 z M 34.5 12 h 2 V 9.8 h -2 V 12 z M 41.2 4.2 l 0.3 -0.4 c 1.4 0 3 0.9 3 2.1 c 0.1 0.5 -0.3 0.9 -0.7 0.9 c -0.1 0 -0.1 0 -0.2 0 C 42.8 5.8 42 5 41.2 4.2 z M 41.6 12.1 c 1 -1.6 1.9 -3.3 2.6 -5 l 0.5 0.1 c 0 1.4 -0.2 2.7 -0.6 4 c -0.3 1.1 -0.8 1.6 -1.5 1.6 C 42.1 12.8 41.7 12.5 41.6 12.1 z M 41.7 0.8 l 0.2 -0.4 c 1.5 0 2.9 0.8 2.9 1.8 c 0.1 0.4 -0.2 0.9 -0.7 0.9 c 0 0 -0.1 0 -0.1 0 C 43.3 2.3 42.5 1.6 41.7 0.8 z M 49.6 5 h -0.1 c -1.5 0.6 -3.1 1 -4.7 1.3 l -0.1 -0.5 c 1.3 -0.4 2.5 -0.9 3.7 -1.5 c -0.9 -0.7 -1.8 -1.4 -2.6 -2.2 l 0.3 -0.4 c 1.1 0.7 2.3 1.3 3.5 1.9 c 0.7 -0.4 1.3 -0.9 1.9 -1.5 c 0.4 -0.5 0.3 -0.9 -0.3 -0.9 h -5.3 c -0.4 0 -0.5 -0.1 -0.5 -0.5 h 6.9 c 1 0 1.3 0.9 0.8 1.7 c -0.5 0.7 -1.2 1.3 -1.9 1.8 c 1.1 0.4 2.2 0.7 3.3 1 c 0 0.7 -0.4 1.1 -1.3 1.1 C 51.8 6.1 50.6 5.7 49.6 5 z M 45.4 7.2 h 3.3 V 5.7 h 0.5 c 0.8 0 1.1 0.3 1.1 1 v 0.5 H 53 c 0.4 0 0.5 0.2 0.5 0.5 h -3.3 v 1.9 h 3.4 c 0.3 0 0.5 0.2 0.5 0.5 h -4 v 2.9 h -1.6 v -2.9 h -3.4 c -0.3 0 -0.5 -0.1 -0.5 -0.5 h 4 V 7.7 h -2.8 C 45.5 7.7 45.4 7.6 45.4 7.2 z M 55.6 0.7 h 11.5 c 0.4 0 0.5 0.2 0.5 0.5 h -5.2 v 1.9 H 65 c 1.2 0 1.8 0.5 1.8 1.6 v 4.4 h 0.7 c 0.4 0 0.5 0.2 0.5 0.5 h -1.2 v 1.1 c 0 1.6 -0.7 2.3 -2.2 2.3 c -0.9 0.1 -1.8 -0.2 -2.5 -0.8 l 0.3 -0.4 c 0.5 0.3 1.1 0.4 1.6 0.4 c 0.9 0 1.3 -0.4 1.3 -1.4 V 9.6 h -7.2 v 3.3 h -1.6 V 9.6 h -0.9 c -0.3 0 -0.5 -0.1 -0.5 -0.5 h 1.4 v -6 h 4.4 V 1.2 H 56 C 55.7 1.2 55.6 1 55.6 0.7 z M 58.1 6.1 h 2.8 V 3.6 h -2.8 L 58.1 6.1 z M 58.1 9.1 h 2.8 V 6.6 h -2.8 L 58.1 9.1 z M 62.4 3.6 v 2.5 h 2.8 V 4.5 c 0 -0.6 -0.3 -0.9 -1 -0.9 L 62.4 3.6 z M 62.4 9.1 h 2.8 V 6.6 h -2.8 V 9.1 z M 70.6 7.2 h 4.3 V 3.5 h -2.7 c -0.1 0.4 -0.3 0.7 -0.5 1.1 c -0.5 0.9 -1.3 1.6 -2.2 2 l -0.3 -0.3 c 0.9 -1.8 1.6 -3.7 2.1 -5.7 c 0.8 -0.1 1.3 0.4 1.3 1.4 c 0 0.4 -0.1 0.8 -0.2 1.1 h 2.6 V 0.3 h 0.6 c 0.8 0 1.1 0.3 1.1 1 V 3 h 3.9 c 0.4 0 0.6 0.1 0.6 0.5 h -4.5 v 3.7 h 3.7 c 0.4 0 0.5 0.2 0.5 0.5 h -4.2 v 4.2 h 4.5 c 0.4 0 0.6 0.2 0.6 0.5 h -12 c -0.4 0 -0.5 -0.1 -0.5 -0.5 h 5.7 V 7.7 h -3.7 C 70.8 7.7 70.6 7.5 70.6 7.2 L 70.6 7.2 z M 82.8 5.2 c 1.3 -0.5 2.6 -1.1 3.8 -1.8 L 87 3.7 C 86.5 5 85.3 6 83.9 6.2 c -0.5 0.1 -1 -0.3 -1 -0.8 C 82.8 5.3 82.8 5.3 82.8 5.2 L 82.8 5.2 z M 83.1 1 l 0.2 -0.4 c 1.4 -0.2 3.1 0.3 3.1 1.4 c 0 0.4 -0.2 0.7 -0.6 0.8 C 85 2.1 84.1 1.5 83.1 1 z M 83.3 12.5 c 4.1 -1.1 5.4 -2.5 5.4 -5 h 0.4 c 0.8 0 1.1 0.3 1.1 1 c 0 2.6 -2.1 4.1 -6.8 4.5 L 83.3 12.5 z M 90 10.7 l 0.2 -0.5 c 0.9 0 1.8 0.1 2.7 0.3 V 7.8 c 0 -0.6 -0.3 -0.9 -1 -0.9 h -6 v 3.8 h -1.5 V 6.4 h 8.4 c 1.1 0 1.6 0.4 1.6 1.4 v 2.7 h -1.5 c 0.2 0.1 0.5 0.1 0.7 0.2 c 1.2 0.4 1.7 0.8 1.7 1.6 c 0 0.4 -0.2 0.7 -0.6 0.7 c 0 0 0 0 0 0 C 93.2 12.1 91.6 11.3 90 10.7 z M 92.3 5.4 c -0.4 -0.3 -0.8 -0.6 -1.1 -1 c -0.7 1 -2.3 1.8 -4.8 1.9 l -0.1 -0.5 c 2.5 -0.8 3.8 -2 4 -3.8 h 0.5 c 0.5 -0.1 0.9 0.2 1 0.6 c 0 0.1 0 0.2 0 0.4 c 0 0.2 0 0.4 -0.1 0.5 c 1.3 0.7 2.6 1.3 4 1.7 c 0 0.7 -0.3 1 -1.2 1 C 93.7 6.3 92.9 5.9 92.3 5.4 L 92.3 5.4 z M 86.5 2.9 C 87.3 2 88 1 88.5 0 c 0.6 0 1 0.3 1 1 l 0 0 h 4.2 c 0.9 0 1.4 0.5 1.4 1.2 c 0 0.8 -0.6 1.5 -1.5 1.5 c 0 0 -0.1 0 -0.1 0 l -0.2 -0.4 c 0.2 -0.3 0.4 -0.6 0.4 -1 c 0 -0.5 -0.3 -0.8 -0.9 -0.8 h -3.4 c -0.4 1.1 -1.5 1.7 -2.6 1.7 L 86.5 2.9 z M 96.4 4.1 l 0.3 -0.4 c 1.3 0.1 2.8 0.8 2.8 2 c 0.1 0.4 -0.2 0.8 -0.7 0.9 c -0.1 0 -0.1 0 -0.2 0 C 97.9 5.6 97.2 4.8 96.4 4.1 z M 96.6 12.1 c 0.9 -1.6 1.7 -3.2 2.4 -4.9 l 0.5 0.1 c 0 1.4 -0.2 2.8 -0.6 4.1 c -0.3 0.9 -0.7 1.3 -1.4 1.3 C 97.1 12.7 96.7 12.5 96.6 12.1 L 96.6 12.1 z M 96.7 0.8 L 97 0.4 c 1.4 0 2.8 0.7 2.8 1.8 c 0.1 0.4 -0.3 0.8 -0.7 0.9 c 0 0 0 0 -0.1 0 C 98.3 2.3 97.5 1.5 96.7 0.8 z M 99.1 12.5 c 0.7 -1.8 1.1 -3.7 1 -5.6 V 0.7 h 8.9 c 0.4 0 0.5 0.2 0.5 0.5 h -8 v 5.6 c 0 3.2 -0.7 4.8 -2 6 L 99.1 12.5 z M 101.2 11.9 c 0.7 -1.1 1.3 -2.2 1.8 -3.4 c 0.6 0 1 0.3 1 1 c -0.1 1.4 -1.2 2.5 -2.5 2.8 L 101.2 11.9 z M 102.4 2.8 h 2 c 0.2 -0.4 0.3 -0.9 0.4 -1.3 c 0.7 -0.3 1.5 0 1.5 0.8 c 0 0.2 0 0.4 -0.1 0.6 h 1.3 c 1.1 0 1.5 0.4 1.5 1.3 v 3.8 h -2.6 v 3.4 c 0 1.1 -0.5 1.6 -1.4 1.6 c -0.6 0 -1.2 -0.2 -1.6 -0.6 l 0.3 -0.4 c 0.2 0.1 0.5 0.2 0.8 0.2 c 0.4 0 0.6 -0.2 0.6 -0.7 V 7.9 h -2.5 L 102.4 2.8 z M 103.7 5.1 h 3.8 v -1 c 0 -0.6 -0.2 -0.9 -0.8 -0.9 h -2.9 V 5.1 z M 107.5 5.6 h -3.8 v 1.8 h 3.8 V 5.6 z M 107 8.8 l 0.4 -0.3 c 1.2 0.5 2 1.6 2.1 2.8 c 0.1 0.5 -0.3 0.9 -0.7 0.9 c -0.1 0 -0.2 0 -0.3 0 C 108.1 11 107.6 9.9 107 8.8 z M 110.6 1.6 h 3.6 c 0.2 -0.5 0.3 -1 0.3 -1.5 h 0.4 c 0.8 0 1.2 0.4 1.1 1.4 c 0 0 0 0.1 0 0.1 h 6.7 c 0.4 0 0.5 0.2 0.5 0.5 h -7.3 c -0.2 0.7 -0.5 1.4 -1 2 h 5.6 c 1.2 0 1.8 0.5 1.8 1.6 v 5 c 0 1.5 -0.7 2.1 -2 2.1 c -0.9 0.1 -1.7 -0.2 -2.3 -0.8 l 0.3 -0.4 c 0.4 0.3 0.9 0.4 1.3 0.4 c 0.7 0 1.1 -0.4 1.1 -1.2 V 9.7 h -6.4 v 3.2 h -1.5 V 6.1 c -0.7 0.4 -1.4 0.8 -2.1 1 l -0.2 -0.4 c 1.6 -1.2 2.8 -2.8 3.6 -4.6 h -2.9 C 110.7 2.1 110.5 2 110.6 1.6 L 110.6 1.6 z M 114.3 4.9 v 1.7 h 6.4 V 5.7 c 0 -0.6 -0.4 -1 -0.9 -1.1 c 0 0 -0.1 0 -0.1 0 h -5.1 C 114.4 4.7 114.3 4.8 114.3 4.9 L 114.3 4.9 z M 114.3 9.2 h 6.4 V 7.1 h -6.4 V 9.2 z M 124.6 0.5 h 2.6 c 0.7 -0.1 1.4 0.4 1.5 1.1 c 0 0.1 0 0.2 0 0.3 c 0 1.2 -0.5 2.4 -1.4 3.3 c 0.9 0.8 1.5 1.9 1.5 3.1 c 0 1.5 -0.6 2.2 -1.6 2.2 c -0.4 0 -0.9 -0.1 -1.2 -0.4 v 3 h -1.3 V 0.5 z M 125.9 9.9 l 0.2 -0.4 c 0.2 0.1 0.4 0.2 0.6 0.1 c 0.4 0 0.7 -0.4 0.7 -1.3 c 0 -1.2 -0.3 -2.3 -1 -3.2 c 0.6 -1 0.9 -2.2 0.9 -3.4 c 0.1 -0.4 -0.2 -0.8 -0.6 -0.8 c -0.1 0 -0.1 0 -0.2 0 h -0.6 L 125.9 9.9 z M 129.2 11.6 V 0.6 h 5.5 c 1.1 0 1.5 0.4 1.5 1.5 v 4.6 h -5.6 v 4.5 c 0 0.5 0.3 0.7 0.8 0.6 c 0.5 -0.2 1 -0.4 1.4 -0.9 l 0.4 0.3 c -0.4 0.9 -1.1 1.5 -2.1 1.6 C 130 13.1 129.2 12.6 129.2 11.6 L 129.2 11.6 z M 130.7 3.5 h 4.2 V 2 c 0 -0.6 -0.3 -0.9 -0.9 -0.9 h -3.3 V 3.5 z M 134.9 6.2 V 3.9 h -4.2 v 2.3 L 134.9 6.2 z M 132.9 10.2 c -0.7 -0.9 -1.3 -1.9 -1.8 -2.9 l 0.4 -0.3 c 0.7 0.8 1.5 1.5 2.3 2.3 c 0.7 -0.7 1.3 -1.4 1.7 -2.3 c 0.5 0 0.8 0.4 0.8 1 c -0.1 1 -0.8 1.8 -1.7 2 c 0.8 0.7 1.7 1.3 2.6 1.8 c 0 0.6 -0.5 0.9 -1.1 0.9 C 135 12.7 133.9 11.6 132.9 10.2 L 132.9 10.2 z M 137.8 7.2 c 1.7 -2.1 3.2 -4.5 4.2 -6.9 c 0.7 0 1.1 0.4 1.1 1.3 c -0.1 1.1 -0.6 2.2 -1.4 3 c -1 1.2 -2.2 2.3 -3.6 3.1 L 137.8 7.2 z M 148.2 11.3 c -1.3 0.3 -2.6 0.6 -3.9 0.8 c -1.3 0.1 -2.6 0.2 -3.8 0.2 c -1.3 0 -1.6 -0.6 -1.4 -1.4 h 0.5 c 1.6 -2.2 3 -4.4 4.2 -6.8 c 0.6 0 1.1 0.5 1.1 1.1 c 0 0 0 0.1 0 0.1 c -0.1 1.1 -0.6 2.1 -1.4 2.9 c -0.8 1.1 -1.8 2 -2.9 2.8 c 2.5 0 4.7 -0.1 7.4 -0.3 c -0.5 -1 -1.1 -2.1 -1.7 -3.1 l 0.4 -0.3 c 0.9 0.6 1.7 1.3 2.3 2.1 c 0.6 0.7 1 1.5 1.1 2.4 c 0 0.8 -0.4 1.2 -1.1 1.2 C 148.7 12.4 148.5 11.9 148.2 11.3 L 148.2 11.3 z M 147.8 5.5 c -0.9 -1.6 -1.5 -3.3 -2 -5 l 0.4 -0.2 c 1.4 2.3 3 4.5 4.8 6.4 c 0 0.5 -0.4 0.8 -1 0.8 C 149.2 7.6 148.5 6.9 147.8 5.5 L 147.8 5.5 z M 158.1 11.9 l 0.3 -0.4 c 0.6 0.4 1.4 0.6 2.1 0.6 c 1.2 0 1.8 -0.5 1.8 -1.7 v -8 c 0 -0.7 -0.4 -1.1 -1.1 -1.1 H 153 c -0.4 0 -0.5 -0.1 -0.5 -0.5 h 9.7 c 1.2 0 1.8 0.5 1.8 1.6 v 7.9 c 0 1.9 -0.9 2.6 -2.7 2.6 C 160.2 13 159.1 12.6 158.1 11.9 L 158.1 11.9 z M 152.5 3.1 h 8.1 c 0.4 0 0.5 0.2 0.5 0.5 H 153 C 152.7 3.6 152.6 3.4 152.5 3.1 L 152.5 3.1 z M 153 5.1 h 6 c 1.2 0 1.7 0.4 1.7 1.6 v 3.7 H 153 L 153 5.1 z M 159.1 6.5 c 0 -0.7 -0.3 -1 -1 -1 h -3.7 v 4.3 h 4.7 L 159.1 6.5 z"/>
    </g>
</svg>
