<svg xmlns="http://www.w3.org/2000/svg" viewBox="0 0 1920 940"><defs><style>.cls-1{isolation:isolate;}.cls-2{opacity:0.3;}.cls-10,.cls-11,.cls-12,.cls-13,.cls-14,.cls-3,.cls-4,.cls-5,.cls-6,.cls-7,.cls-8,.cls-9{fill:#59bfa9;}.cls-3{opacity:0.04;}.cls-4{opacity:0.07;}.cls-5{opacity:0.3;}.cls-12,.cls-14,.cls-5,.cls-6,.cls-9{mix-blend-mode:overlay;}.cls-6{opacity:0.24;}.cls-7{opacity:0.28;}.cls-8{opacity:0.13;}.cls-9{opacity:0.69;}.cls-10{opacity:0.05;}.cls-11{opacity:0.08;}.cls-13{opacity:0.14;}.cls-14{opacity:0.33;}</style></defs><g class="cls-1"><g id="图层_2" data-name="图层 2"><g id="用户登录"><g id="页面背景"><g class="cls-2"><path class="cls-3" d="M82.83,339.46l180.48,33.79,72.56-84.05L155.46,255.41ZM306.77,295,250.93,359.7l-139-26L167.77,269Z"/><path class="cls-3" d="M82.66,123.58,263.2,157.4l72.56-84.05L155.29,39.51Zm224-44.45-55.94,64.69-138.93-26,55.87-64.69Z"/><path class="cls-3" d="M90.78,523.43l180.44,33.83,72.55-84L163.37,439.4Zm224-44.44-55.91,64.68-139-26L175.71,453Z"/><path class="cls-3" d="M1396.31,86.54l180.47,33.81,72.56-84L1468.94,2.49Zm224-44.45-55.91,64.7-139-26,55.81-64.71Z"/><path class="cls-3" d="M423.41,125.79l180.46,33.8,72.59-84L496,41.75Zm224-44.46-55.91,64.72L452.51,120l55.87-64.71Z"/><path class="cls-3" d="M247.23,461.17,427.68,495l72.6-84.05L319.82,377.11Zm224-44.45-55.91,64.73-138.94-26,55.87-64.72Z"/><path class="cls-3" d="M201.25,643.12l180.47,33.8,72.6-84L273.86,559.06Zm224-44.44-55.91,64.68-138.94-26,55.87-64.68Z"/><path class="cls-3" d="M114.91,619.08l125.75,23.57L291.35,584,165.49,560.46Zm156.17-31-39,45.15-96.83-18.14L174.15,570Z"/><path class="cls-3" d="M180.08,106.27,305.9,129.83l50.62-58.56L230.7,47.66Zm156.24-31-39.05,45.14-96.82-18.13,38.87-45.15Z"/><path class="cls-3" d="M162.05,532.87,287.8,556.45l50.69-58.6L212.64,474.26Zm156.1-31L279.21,547l-97-18.13,39-45.11Z"/><path class="cls-3" d="M141,78.26l125.89,23.57,50.59-58.58L191.65,19.64Zm156.14-31L258.16,92.39,161.23,74.22l39.05-45.11Z"/><path class="cls-3" d="M1555.37,779.65l125.75,23.56,50.69-58.56L1606,721Zm156.1-31-38.94,45.15-96.9-18.14,38.91-45.14Z"/><path class="cls-3" d="M1725.69,68.24l125.86,23.57,50.58-58.6L1776.38,9.63Zm156.1-31-38.87,45.13-97-18.14,39-45.12Z"/><path class="cls-3" d="M415.6,59.34,541.44,82.91l50.64-58.59L466.26.74Zm156.16-31L532.82,73.47l-96.9-18.16,39-45.11Z"/><path class="cls-3" d="M224.11,109.29l125.82,23.57,50.64-58.6L274.73,50.69Zm156.15-31-38.95,45.14-96.92-18.15,39-45.11Z"/><path class="cls-3" d="M201.13,351.91l125.8,23.57,50.66-58.6L251.76,293.3Zm156.15-31L318.33,366l-96.9-18.15,39-45.11Z"/><path class="cls-3" d="M201.13,476.77l125.8,23.59,50.66-58.62L251.76,418.17Zm156.15-31L318.33,490.9l-96.9-18.16,39-45.1Z"/><path class="cls-3" d="M155.16,669.4,281,693l50.62-58.61L205.79,610.82Zm156.16-31-39,45.09L175.45,665.4l39-45.09Z"/><path class="cls-4" d="M0,273.86l250.53,47L351.25,204.15l-250.5-47Zm310.92-61.71L233.25,302,40.33,265.87,118,176Z"/><path class="cls-5" d="M727.05,482.55c-10,0-18.17,3.8-18.17,8.47s8.14,8.48,18.17,8.48,18.2-3.8,18.2-8.48S737.11,482.55,727.05,482.55Z"/><path class="cls-5" d="M603,245.42c-10,0-18.23,3.82-18.23,8.49S593,262.4,603,262.4s18.19-3.81,18.19-8.49S613.08,245.42,603,245.42Z"/><path class="cls-5" d="M1092.44,53.47c-10,0-18.21,3.81-18.21,8.49s8.17,8.49,18.21,8.49,18.22-3.81,18.22-8.49S1102.49,53.47,1092.44,53.47Z"/><path class="cls-5" d="M1167.51,581.17c-10.09,0-18.26,3.81-18.26,8.46s8.17,8.5,18.26,8.5,18.22-3.76,18.22-8.5S1177.45,581.17,1167.51,581.17Z"/><path class="cls-5" d="M878.8,553.84c-10,0-18.18,3.77-18.18,8.47s8.13,8.48,18.18,8.48,18.25-3.77,18.25-8.48S888.85,553.84,878.8,553.84Z"/><path class="cls-5" d="M1033.38,397.9c-10.05,0-18.22,3.76-18.22,8.44s8.17,8.48,18.22,8.48,18.21-3.81,18.21-8.48S1043.39,397.9,1033.38,397.9Z"/><path class="cls-5" d="M479.54,169.93c-10.05,0-18.18,3.81-18.18,8.49s8.13,8.44,18.18,8.44,18.18-3.76,18.18-8.44S489.57,169.93,479.54,169.93Z"/><path class="cls-6" d="M953.34,890.52c-29.31,0-53.16,11.07-53.16,24.74S924,940,953.34,940s53.13-11.11,53.13-24.74S982.72,890.52,953.34,890.52Z"/><path class="cls-6" d="M1272.78,702.9c-29.34,0-53.23,11.06-53.23,24.74s23.89,24.75,53.23,24.75,53-11.1,53-24.75S1302.09,702.9,1272.78,702.9Z"/><path class="cls-6" d="M928,866.55c16.73,0,30.18-6.28,30.18-14.07s-13.45-14-30.18-14-30.14,6.28-30.14,14S911.31,866.55,928,866.55Z"/><path class="cls-6" d="M828.41,638.67c-16.64,0-30.18,6.28-30.18,14s13.54,14.06,30.18,14.06,30.16-6.29,30.16-14.06S845.08,638.67,828.41,638.67Z"/><path class="cls-6" d="M1349.34,132c-16.62,0-30.18,6.29-30.18,14s13.56,14,30.18,14,30.14-6.29,30.14-14S1366,132,1349.34,132Z"/><path class="cls-6" d="M476,852.73c-16.65,0-30.18,6.28-30.18,14.07s13.53,14,30.18,14,30.14-6.28,30.14-14S492.7,852.73,476,852.73Z"/><polygon class="cls-7" points="1750.02 469.82 1839.27 486.56 1875.19 445 1785.91 428.28 1750.02 469.82"/><polygon class="cls-7" points="494.23 362.29 583.49 379.03 619.37 337.44 530.18 320.76 494.23 362.29"/><polygon class="cls-7" points="247.26 668.69 290.83 676.85 308.33 656.56 264.79 648.42 247.26 668.69"/><polygon class="cls-7" points="337.41 356.76 380.98 364.92 398.5 344.62 354.95 336.46 337.41 356.76"/><polygon class="cls-7" points="917.01 50.84 960.54 59 978.03 38.71 934.5 30.55 917.01 50.84"/><polygon class="cls-7" points="1874.77 240.51 1857.21 260.81 1900.78 268.92 1918.26 248.67 1874.77 240.51"/><polygon class="cls-7" points="1535.3 824.68 1578.77 832.79 1596.25 812.52 1552.76 804.36 1535.3 824.68"/><polygon class="cls-3" points="1326.25 0 1337.9 2.18 1299.03 47.3 1202.06 29.15 1227.23 0 1210.48 0 1181.8 33.17 1307.62 56.74 1356.64 0 1326.25 0"/><polygon class="cls-8" points="678.58 0 637.28 47.81 382.09 0 269.91 0 267.17 3.19 664.62 77.66 731.69 0 678.58 0"/><polygon class="cls-9" points="1920 674.55 1784.06 649.1 1697.25 749.59 1913.08 790 1920 782 1920 674.55"/><polygon class="cls-10" points="1920 837.31 1765.25 808.31 1876.96 678.94 1920 687 1920 664.54 1852.24 651.85 1707.16 819.86 1920 859.74 1920 837.31"/><polygon class="cls-11" points="1200.71 940 1622.26 940 1676.32 877.45 1313.46 809.46 1200.71 940"/><polygon class="cls-11" points="354.48 371.21 180.93 338.69 111.08 419.55 284.71 452.09 354.48 371.21"/><polygon class="cls-11" points="240.17 732.5 603 800.49 748.98 631.51 386.1 563.52 240.17 732.5"/><polygon class="cls-11" points="807.07 49.3 798.3 47.65 652.3 216.64 1015.16 284.63 1032.13 264.98 1040.92 266.63 1186.91 97.64 824.05 29.65 807.07 49.3"/><polygon class="cls-11" points="543.91 248.95 363.31 215.13 290.62 299.26 461.75 331.31 343.2 468.6 706.05 536.6 852 367.59 498.65 301.38 543.91 248.95"/><polygon class="cls-11" points="350.49 795.85 288.32 784.2 256.94 820.54 334.96 835.17 354.46 812.6 416.61 824.26 447.97 787.91 369.95 773.3 350.49 795.85"/><polygon class="cls-11" points="244.95 114.67 166.93 100.03 135.5 136.37 213.52 151 244.95 114.67"/><polygon class="cls-11" points="1908.87 371.08 1854.39 434.17 1653.27 396.48 1697.39 345.42 1823.63 369.11 1896.36 284.96 1770.08 261.31 1792.27 235.62 1783.34 233.95 1792.27 223.61 1429.4 155.63 1283.42 324.61 1292.36 326.28 1283.42 336.63 1641.31 403.64 1502.38 564.53 1865.17 632.52 1920 569.04 1920 470.92 1920 446.46 1920 373.16 1908.87 371.08"/><polygon class="cls-3" points="1920 213.82 1919.51 214.38 1822.58 196.24 1861.63 151.13 1920 162.06 1920 154.23 1852.9 141.65 1802.31 200.25 1920 222.32 1920 213.82"/><polygon class="cls-3" points="1920 209.33 1900.39 205.67 1920 182.94 1920 155.04 1871.22 211.43 1920 220.56 1920 209.33"/><path class="cls-12" d="M1920,194.6V178.19l-341.12-63.92,26.73-30.91L1496.44,62.91l-26.66,30.91-6-1.11L1275.49,310.83,1551,362.44l-85.59,99.13,344.47,64.57L1920,398.52V325.39l-24.27-4.55-26,30.09-73-13.67ZM1351,295.87l145.08-168,360.68,67.58L1743,327.17l-139-26.05-31.32,36.27Z"/><path class="cls-12" d="M425.64,658.91l-75.48-14.17-43.9,50.84,75.47,14.15-26.2,30.32L621.82,790l107.12-124L462.68,616.05ZM686,674.47,603.52,770l-205-38.42,13.88-16.08,3,.57,43.89-50.81-3-.58,24.7-28.6Z"/><path class="cls-12" d="M1398.71,48.09,1141.85,0H1130.9L1025.27,122.24l266.25,49.86Zm-330.46,65.62,82.47-95.51,205,38.42-82.4,95.51Z"/><path class="cls-12" d="M1616.83,748.1l82.57,15.47,33.24-38.43L1650,709.65Zm102.46-20.33-25.59,29.6-63.58-11.9,25.65-29.61Z"/><path class="cls-12" d="M440.9,103.25,358.33,87.77l-33.17,38.42,82.46,15.5ZM338.44,123.58,363.92,94l63.59,11.9L402,135.52Z"/><path class="cls-12" d="M286.81,215.28,204.2,199.79,171,238.25l82.6,15.5ZM184.32,235.62,209.89,206l63.57,11.89-25.59,29.61Z"/><path class="cls-12" d="M724.25,89.76,802,104.32l47.54-55.07L731.3,27.1l-30,34.77L585.77,40.23,523,112.89l156,29.24ZM548.12,107.89l48.34-56L694.1,70.2l-10.34,12,22.56,4.23-38,44Z"/><path class="cls-12" d="M599.3,472.06l86.79-100.45L565.54,349,613,294,346.76,244.16l-107.15,124,171.06,32.06-27.16,31.42ZM282.57,359.63,365,264.17l205.07,38.38-35.18,40.73-64.59-12.11L423,386Z"/><polygon class="cls-12" points="782.79 137.74 891.91 158.16 935.82 107.36 826.69 86.89 782.79 137.74"/><path class="cls-12" d="M1644.23,761.16l-109.17-20.4-23.77,27.57L1403,748,1295.76,872,1562.08,922l107.08-124-48.77-9.14Zm-18,45.29-82.53,95.45-205-38.37,82.54-95.5L1499,782.6l-7.73,9L1600.32,812l7.76-9Z"/><polygon class="cls-12" points="1711.26 544.89 1632.93 635.61 1827.76 672.12 1896.03 593.05 1920 597.54 1920 587.81 1903.26 584.68 1906.13 581.35 1890.51 578.43 1920 544.29 1920 520.2 1872.6 575.08 1711.26 544.89"/><polygon class="cls-12" points="97.54 372.97 50.29 427.78 167.84 449.81 215.26 395.04 97.54 372.97"/><polygon class="cls-12" points="1777.67 850.51 1861.63 866.23 1895.32 827.14 1811.42 811.45 1777.67 850.51"/><polygon class="cls-12" points="398.72 157.22 280.55 135.07 233.01 190.15 351.22 212.3 398.72 157.22"/><polygon class="cls-12" points="1764.04 37.27 1645.83 15.13 1598.27 70.16 1716.51 92.3 1764.04 37.27"/><path class="cls-12" d="M354.69,612.08l58.64-65.57-68.46-15.28L407,459.33,250.86,430.08,188.09,502.8l90.26,16.91L223.48,582.6ZM261.62,441.81l120.14,22.51-48.34,56L213.28,497.79Zm30.14,80.41,114.73,25.53-54.44,60.93L230.24,581.3l52.94-60.69Z"/><path class="cls-12" d="M526.44,167.68c29.31,0,53.14-11.07,53.14-24.73s-23.83-24.77-53.14-24.77S473.3,129.29,473.3,143,497.06,167.68,526.44,167.68Z"/><polygon class="cls-12" points="1571.57 0 1247.65 0 1526.47 52.23 1571.57 0"/><polygon class="cls-12" points="1449.02 940 1567.36 940 1465.49 920.91 1449.02 940"/><path class="cls-13" d="M1838.33,730.8l-156-29.22-62.79,72.62,156,29.24Zm-193.68,38.44,48.36-56,120.26,22.53-48.36,55.92Z"/><path class="cls-13" d="M1558.36,317.6l31.48-36.46,130.49,24.44,66.44-76.92L1656.28,204.2l1.79-2.08-14.52-2.72c5.26-.64,9.13-2.86,9.13-5.52,0-3.14-5.46-5.68-12.24-5.68s-12.2,2.54-12.2,5.68a3.9,3.9,0,0,0,1.82,3l-94.26-17.65,81-93.78-278-52.08L1308.7,68.29C1291,73,1279.11,81.76,1279.11,91.86a14.39,14.39,0,0,0,2.46,7.82L1227,162.84,1361.19,188a3.38,3.38,0,0,0-1.07,2.32c0,3.15,5.45,5.72,12.27,5.72a25.81,25.81,0,0,0,3.1-.19l-65,75.3Zm201.89-83.66L1709,293.2l-111.51-20.92L1648.67,213Zm-148.34-25-56.82,65.72,6.28,1.18-20,23.17-190.91-35.76,57.41-66.49,97.09,18.2,19.38-22.43Z"/><path class="cls-13" d="M254.27,157.17l247.9,46.47L601.88,88.16,354,41.75ZM561.9,96.11,485.14,185l-190.91-35.8,76.84-88.9Z"/><path class="cls-13" d="M874.6,77.71l-66.49,77,165.22,31,66.48-77Zm87.4,95.5L834.74,149.38l51.19-59.25L1013.18,114Z"/><path class="cls-13" d="M372.11,585.66c-32.23,0-58.29,12.16-58.29,27.07s26.06,27.14,58.29,27.14,58.22-12.15,58.22-27.14S404.25,585.66,372.11,585.66Z"/><path class="cls-13" d="M1414,724.83c-32.23,0-58.34,12.12-58.34,27.07S1381.81,779,1414,779s58.2-12.11,58.2-27.12S1446.17,724.83,1414,724.83Z"/><path class="cls-13" d="M1066,775.44c-19.5,0-35.36,7.35-35.36,16.37s15.86,16.45,35.36,16.45,35.19-7.36,35.19-16.45S1085.35,775.44,1066,775.44Z"/><path class="cls-13" d="M1586.87,693.38c-19.51,0-35.33,7.34-35.33,16.4s15.82,16.41,35.33,16.41,35.18-7.34,35.18-16.41S1606.3,693.38,1586.87,693.38Z"/><path class="cls-13" d="M1272.78,283.09c-19.47,0-35.29,7.35-35.29,16.38s15.82,16.43,35.29,16.43,35.22-7.37,35.22-16.43S1292.25,283.09,1272.78,283.09Z"/><path class="cls-13" d="M751.26,821.14c-17.33,0-31.43,6.55-31.43,14.6s14.1,14.64,31.43,14.64,31.4-6.56,31.4-14.64S768.61,821.14,751.26,821.14Z"/><path class="cls-13" d="M1691,422.21c0-3.14-5.46-5.68-12.24-5.68-4.18,0-7.87,1-10.08,2.45-10.51-7.06-28-11.69-47.88-11.69-32.23,0-58.27,12.13-58.27,27.06s26,27.15,58.27,27.15,58.2-12.14,58.2-27.15a13.76,13.76,0,0,0-1.68-6.46c.47,0,1,0,1.44,0C1685.57,427.93,1691,425.38,1691,422.21Z"/><path class="cls-13" d="M828.41,188.2c-6.78,0-12.24,2.54-12.24,5.68s5.46,5.72,12.24,5.72,12.24-2.56,12.24-5.72S835.17,188.2,828.41,188.2Z"/><path class="cls-13" d="M813.08,370.14c-6.78,0-12.24,2.56-12.24,5.69s5.46,5.72,12.24,5.72,12.25-2.56,12.25-5.72S819.86,370.14,813.08,370.14Z"/><path class="cls-13" d="M682.84,908.88c-6.76,0-12.22,2.56-12.22,5.68s5.46,5.7,12.22,5.7,12.25-2.54,12.25-5.7S689.62,908.88,682.84,908.88Z"/><path class="cls-13" d="M805.43,612.76c-6.78,0-12.24,2.55-12.24,5.67s5.46,5.72,12.24,5.72,12.22-2.55,12.22-5.72S812.21,612.76,805.43,612.76Z"/><path class="cls-13" d="M1165.53,798.29c-6.82,0-12.28,2.54-12.28,5.67s5.46,5.75,12.28,5.75,12.23-2.6,12.23-5.75S1172.27,798.29,1165.53,798.29Z"/><path class="cls-13" d="M1436.67,643.41c0,3.18,5.5,5.72,12.27,5.72,6.1,0,11.11-2.06,12.07-4.78l237.11,44.45L1810,559.35,1635,526.56a9.26,9.26,0,0,0,2.35-5.9c0-9-15.78-16.37-35.22-16.37-14.6,0-27.17,4.13-32.54,10l-37.62-7-19.28,22.32a22.92,22.92,0,0,0-6.9-1c-6.78,0-12.24,2.55-12.24,5.71,0,2.81,4.41,5.16,10.21,5.62l-83.63,96.8,18.7,3.5C1437.48,641.12,1436.67,642.22,1436.67,643.41Z"/><path class="cls-13" d="M1441.3,816.12c-6.78,0-12.24,2.54-12.24,5.7s5.46,5.71,12.24,5.71,12.23-2.56,12.23-5.71S1448.08,816.12,1441.3,816.12Z"/><path class="cls-13" d="M1453.53,493.56c0-3.13-5.45-5.67-12.23-5.67s-12.24,2.54-12.24,5.67,5.46,5.72,12.24,5.72S1453.53,496.72,1453.53,493.56Z"/><polygon class="cls-13" points="1030.21 0 997.11 0 961.69 41.05 770.82 5.29 775.37 0 742.24 0 730.84 13.2 978.69 59.66 1030.21 0"/><polygon class="cls-13" points="1920 113.2 1920 97.78 1842.99 83.34 1874.25 47.18 1734.14 20.93 1677.82 86.18 1804.92 110 1730.28 196.35 1920 231.91 1920 216.48 1770.22 188.44 1847.03 99.53 1920 113.2"/><polygon class="cls-13" points="1656.12 940 1678.16 940 1723.12 887.91 1850.4 911.75 1825.96 940 1848 940 1877 906.45 1711.85 875.52 1656.12 940"/><path class="cls-14" d="M237.53,346.48l111.79,20.94,59.56-69L260.79,270.64l-26.1,30.22-111.79-21-59.55,69,148.17,27.75ZM271,281.8l114,21.36-45.9,53.11-94.75-17.73L271,307.68l-19.24-3.61Zm-45.87,53.14L245,312l2.21.41-19.83,23ZM87.27,344.16,133.12,291l94.75,17.74-26.69,30.91,19.31,3.61L201.3,365.51Z"/><path class="cls-14" d="M1601.36,820.08l-59.59,69L1690,916.88l59.48-69Zm78.37,85.63-114-21.33,45.86-53.16,114,21.38Z"/><path class="cls-14" d="M358.12,51,210.05,23.14l-59.67,69,148.11,27.76ZM174.37,87.44l45.86-53.15,114,21.36-45.93,53.11Z"/><path class="cls-14" d="M242.62,580.6,282.08,588l59.52-69L193.5,491.24l-1.47,1.7-39.47-7.41L93,554.54l148.14,27.77ZM276.81,518,232.4,569.48l-74.54-14,44.4-51.46Zm-4.91,58.83-22.44-4.2,45.86-53.13,22.43,4.2ZM162.81,496.68l22.38,4.19L139.32,554l-22.4-4.18Z"/><path class="cls-14" d="M1864.38,34.42,1716.27,6.62l-59.59,69,148.21,27.76ZM1680.6,70.92l45.86-53.15,114.06,21.37-45.85,53.1Z"/><path class="cls-14" d="M291.23,729.27l-38.14-7.16-33.28,38.44,38.24,7.16-18.57,21.51L387.62,817l59.55-69L299.08,720.18Zm-58,28.65,25.52-29.61,28.71,5.37-25.56,29.61Zm71.33-21,17.78,3.33-25.52,29.61L279,766.49Zm118.79,15.83-45.89,53.11-114-21.33,11.73-13.57L302.39,776l33.2-38.43-27.26-5.12,1-1.13Z"/><polygon class="cls-14" points="699.54 0 737.4 7.09 691.51 60.19 577.5 38.88 611.05 0 591.21 0 553.56 43.59 701.7 71.35 761.26 2.38 748.58 0 699.54 0"/><polygon class="cls-14" points="1920 890.39 1920 881.16 1918.12 880.8 1920 878.63 1920 855.59 1894.1 885.53 1920 890.39"/><polygon class="cls-14" points="1920 163.75 1920 154.51 1892.47 149.35 1832.88 218.36 1920 234.69 1920 225.47 1856.8 213.64 1902.65 160.5 1920 163.75"/><polygon class="cls-14" points="1734 940 1753.96 940 1795.47 891.88 1909.43 913.25 1886.31 940 1906.2 940 1920 923.99 1920 906.01 1785.24 880.75 1734 940"/><path class="cls-3" d="M1726.21,940l68.67-79.53-180.37-33.78-72.67,84L1698.22,940Zm-99.43-99.77,139.07,26L1709.94,931,1571,905Z"/></g></g></g></g></g></svg>