<?xml version="1.0" encoding="utf-8"?>
<!-- Generator: Adobe Illustrator 25.2.3, SVG Export Plug-In . SVG Version: 6.00 Build 0)  -->
<svg version="1.1" id="图层_1" xmlns="http://www.w3.org/2000/svg" xmlns:xlink="http://www.w3.org/1999/xlink" x="0px" y="0px"
	 viewBox="0 0 1920 940" style="enable-background:new 0 0 1920 940;" xml:space="preserve">
<style type="text/css">
	.st0{opacity:0.15;}
	.st1{opacity:0.24;fill:#FFFFFF;enable-background:new    ;}
	.st2{opacity:0.6;fill:#FFFFFF;enable-background:new    ;}
	.st3{opacity:0.8;}
	.st4{fill:#FFFFFF;}
	.st5{opacity:0.16;fill:#FFFFFF;enable-background:new    ;}
	.st6{opacity:0.36;fill:#FFFFFF;enable-background:new    ;}
	.st7{opacity:8.000000e-02;fill:#FFFFFF;enable-background:new    ;}
</style>
<g class="st0">
	<g>
		<path class="st1" d="M953.3,890.5c-29.3,0-53.2,11.1-53.2,24.7S924,940,953.3,940s53.1-11.1,53.1-24.7S982.7,890.5,953.3,890.5z"
			/>
		<path class="st1" d="M1272.8,702.9c-29.3,0-53.2,11.1-53.2,24.7s23.9,24.8,53.2,24.8s53-11.1,53-24.8S1302.1,702.9,1272.8,702.9z"
			/>
		<path class="st1" d="M928,866.5c16.7,0,30.2-6.3,30.2-14.1s-13.5-14-30.2-14s-30.1,6.3-30.1,14S911.3,866.5,928,866.5z"/>
		<path class="st1" d="M828.4,638.7c-16.6,0-30.2,6.3-30.2,14s13.5,14.1,30.2,14.1s30.2-6.3,30.2-14.1S845.1,638.7,828.4,638.7z"/>
		<path class="st1" d="M1349.3,132c-16.6,0-30.2,6.3-30.2,14s13.6,14,30.2,14s30.1-6.3,30.1-14S1366,132,1349.3,132z"/>
		<path class="st1" d="M476,852.7c-16.6,0-30.2,6.3-30.2,14.1s13.5,14,30.2,14s30.1-6.3,30.1-14S492.7,852.7,476,852.7z"/>
	</g>
	<polygon class="st2" points="1920,674.5 1784.1,649.1 1697.2,749.6 1913.1,790 1920,782 	"/>
	<g class="st3">
		<path class="st4" d="M1920,178.2l-341.1-63.9l26.7-30.9l-109.2-20.5l-26.7,30.9l-6-1.1l-188.3,218.1l275.5,51.6l-85.6,99.1
			l344.5,64.6L1920,398.5v-73.1l-24.3-4.5l-26,30.1l-73-13.7L1920,194.6V178.2z M1743,327.2l-139-26l-31.3,36.3L1351,295.9
			l145.1-168l360.7,67.6L1743,327.2z"/>
		<path class="st4" d="M425.6,658.9l-75.5-14.2l-43.9,50.8l75.5,14.2L355.5,740l266.3,50l107.1-124l-266.3-50L425.6,658.9z
			 M686,674.5L603.5,770l-205-38.4l13.9-16.1l3,0.6l43.9-50.8l-3-0.6l24.7-28.6L686,674.5z"/>
		<path class="st4" d="M1398.7,48.1L1141.8,0h-10.9l-105.6,122.2l266.2,49.9L1398.7,48.1z M1068.2,113.7l82.5-95.5l205,38.4
			l-82.4,95.5L1068.2,113.7z"/>
		<path class="st4" d="M1616.8,748.1l82.6,15.5l33.2-38.4l-82.6-15.5L1616.8,748.1z M1719.3,727.8l-25.6,29.6l-63.6-11.9l25.7-29.6
			L1719.3,727.8z"/>
		<path class="st4" d="M440.9,103.2l-82.6-15.5l-33.2,38.4l82.5,15.5L440.9,103.2z M338.4,123.6L363.9,94l63.6,11.9L402,135.5
			L338.4,123.6z"/>
		<path class="st4" d="M286.8,215.3l-82.6-15.5L171,238.2l82.6,15.5L286.8,215.3z M184.3,235.6l25.6-29.6l63.6,11.9l-25.6,29.6
			L184.3,235.6z"/>
		<path class="st4" d="M724.2,89.8l77.8,14.6l47.5-55.1L731.3,27.1l-30,34.8L585.8,40.2L523,112.9l156,29.2L724.2,89.8z
			 M548.1,107.9l48.3-56L694,70.2l-10.3,12l22.6,4.2l-38,44L548.1,107.9z"/>
		<path class="st4" d="M599.3,472.1l86.8-100.5L565.5,349l47.5-55l-266.2-49.8l-107.1,124l171.1,32.1l-27.2,31.4L599.3,472.1z
			 M282.6,359.6l82.4-95.5l205.1,38.4l-35.2,40.7l-64.6-12.1L423,386L282.6,359.6z"/>
		<polygon class="st4" points="782.8,137.7 891.9,158.2 935.8,107.4 826.7,86.9 		"/>
		<path class="st4" d="M1644.2,761.2L1535,740.8l-23.8,27.6L1403,748l-107.2,124l266.3,50l107.1-124l-48.8-9.1L1644.2,761.2z
			 M1626.2,806.4l-82.5,95.5l-205-38.4l82.5-95.5l77.8,14.6l-7.7,9l109,20.4l7.8-9L1626.2,806.4z"/>
		<polygon class="st4" points="1711.3,544.9 1632.9,635.6 1827.8,672.1 1896,593 1920,597.5 1920,587.8 1903.3,584.7 1906.1,581.3 
			1890.5,578.4 1920,544.3 1920,520.2 1872.6,575.1 		"/>
		<polygon class="st4" points="97.5,373 50.3,427.8 167.8,449.8 215.3,395 		"/>
		<polygon class="st4" points="1777.7,850.5 1861.6,866.2 1895.3,827.1 1811.4,811.5 		"/>
		<polygon class="st4" points="398.7,157.2 280.5,135.1 233,190.1 351.2,212.3 		"/>
		<polygon class="st4" points="1764,37.3 1645.8,15.1 1598.3,70.2 1716.5,92.3 		"/>
		<path class="st4" d="M354.7,612.1l58.6-65.6l-68.5-15.3l62.1-71.9l-156.1-29.2L188,502.8l90.3,16.9l-54.9,62.9L354.7,612.1z
			 M213.3,497.8l48.3-56l120.1,22.5l-48.3,56L213.3,497.8z M283.2,520.6l8.6,1.6l114.7,25.5l-54.4,60.9l-121.8-27.4L283.2,520.6z"/>
		<path class="st4" d="M526.4,167.7c29.3,0,53.1-11.1,53.1-24.7c0-13.7-23.8-24.8-53.1-24.8s-53.1,11.1-53.1,24.8
			S497.1,167.7,526.4,167.7z"/>
		<polygon class="st4" points="1571.6,0 1247.7,0 1526.5,52.2 		"/>
		<polygon class="st4" points="1449,940 1567.4,940 1465.5,920.9 		"/>
	</g>
	<g>
		<polygon class="st5" points="678.6,0 637.3,47.8 382.1,0 269.9,0 267.2,3.2 664.6,77.7 731.7,0 		"/>
		<path class="st5" d="M1838.3,730.8l-156-29.2l-62.8,72.6l156,29.2L1838.3,730.8z M1644.6,769.2l48.4-56l120.3,22.5l-48.4,55.9
			L1644.6,769.2z"/>
		<path class="st5" d="M1558.4,317.6l31.5-36.5l130.5,24.4l66.4-76.9l-130.5-24.5l1.8-2.1l-14.5-2.7c5.3-0.6,9.1-2.9,9.1-5.5
			c0-3.1-5.5-5.7-12.2-5.7s-12.2,2.5-12.2,5.7c0.1,1.2,0.8,2.3,1.8,3l-94.3-17.7l81-93.8l-278-52.1l-30.1,34.9
			c-17.7,4.7-29.6,13.5-29.6,23.6c0,2.8,0.9,5.5,2.5,7.8l-54.6,63.2l134.2,25.2c-0.6,0.6-1,1.4-1.1,2.3c0,3.1,5.4,5.7,12.3,5.7
			c1,0,2.1-0.1,3.1-0.2l-65,75.3L1558.4,317.6z M1648.7,213l111.6,20.9l-51.2,59.3l-111.5-20.9L1648.7,213z M1407.9,196.8L1505,215
			l19.4-22.4L1612,209l-56.8,65.7l6.3,1.2l-20,23.2l-190.9-35.8L1407.9,196.8z"/>
		<path class="st5" d="M254.3,157.2l247.9,46.5l99.7-115.5L354,41.8L254.3,157.2z M561.9,96.1L485.1,185l-190.9-35.8L371,60.3
			L561.9,96.1z"/>
		<path class="st5" d="M874.6,77.7l-66.5,77l165.2,31l66.5-77L874.6,77.7z M962,173.2l-127.3-23.8l51.2-59.2l127.2,23.9L962,173.2z"
			/>
		<path class="st5" d="M372.1,585.7c-32.2,0-58.3,12.2-58.3,27.1s26.1,27.1,58.3,27.1s58.2-12.2,58.2-27.1S404.2,585.7,372.1,585.7z
			"/>
		<path class="st5" d="M1414,724.8c-32.2,0-58.3,12.1-58.3,27.1s26.2,27.1,58.3,27.1s58.2-12.1,58.2-27.1S1446.2,724.8,1414,724.8z"
			/>
		<path class="st5" d="M1066,775.4c-19.5,0-35.4,7.3-35.4,16.4s15.9,16.5,35.4,16.5s35.2-7.4,35.2-16.5S1085.3,775.4,1066,775.4z"/>
		<path class="st5" d="M1586.9,693.4c-19.5,0-35.3,7.3-35.3,16.4s15.8,16.4,35.3,16.4s35.2-7.3,35.2-16.4S1606.3,693.4,1586.9,693.4
			z"/>
		<path class="st5" d="M1272.8,283.1c-19.5,0-35.3,7.4-35.3,16.4s15.8,16.4,35.3,16.4s35.2-7.4,35.2-16.4S1292.2,283.1,1272.8,283.1
			z"/>
		<path class="st5" d="M751.3,821.1c-17.3,0-31.4,6.5-31.4,14.6s14.1,14.6,31.4,14.6s31.4-6.6,31.4-14.6S768.6,821.1,751.3,821.1z"
			/>
		<path class="st5" d="M1691,422.2c0-3.1-5.5-5.7-12.2-5.7c-4.2,0-7.9,1-10.1,2.5c-10.5-7.1-28-11.7-47.9-11.7
			c-32.2,0-58.3,12.1-58.3,27.1s26,27.2,58.3,27.2s58.2-12.1,58.2-27.2c0-2.3-0.6-4.5-1.7-6.5c0.5,0,1,0,1.4,0
			C1685.6,427.9,1691,425.4,1691,422.2z"/>
		<path class="st5" d="M828.4,188.2c-6.8,0-12.2,2.5-12.2,5.7c0,3.1,5.5,5.7,12.2,5.7s12.2-2.6,12.2-5.7
			C840.6,190.7,835.2,188.2,828.4,188.2z"/>
		<path class="st5" d="M813.1,370.1c-6.8,0-12.2,2.6-12.2,5.7s5.5,5.7,12.2,5.7s12.2-2.6,12.2-5.7S819.9,370.1,813.1,370.1z"/>
		<path class="st5" d="M682.8,908.9c-6.8,0-12.2,2.6-12.2,5.7s5.5,5.7,12.2,5.7s12.2-2.5,12.2-5.7S689.6,908.9,682.8,908.9z"/>
		<path class="st5" d="M805.4,612.8c-6.8,0-12.2,2.5-12.2,5.7s5.5,5.7,12.2,5.7s12.2-2.5,12.2-5.7S812.2,612.8,805.4,612.8z"/>
		<path class="st5" d="M1165.5,798.3c-6.8,0-12.3,2.5-12.3,5.7s5.5,5.8,12.3,5.8s12.2-2.6,12.2-5.8S1172.3,798.3,1165.5,798.3z"/>
		<path class="st5" d="M1436.7,643.4c0,3.2,5.5,5.7,12.3,5.7c6.1,0,11.1-2.1,12.1-4.8l237.1,44.5L1810,559.3l-175-32.8
			c1.5-1.6,2.3-3.7,2.3-5.9c0-9-15.8-16.4-35.2-16.4c-14.6,0-27.2,4.1-32.5,10l-37.6-7l-19.3,22.3c-2.2-0.7-4.6-1-6.9-1
			c-6.8,0-12.2,2.5-12.2,5.7c0,2.8,4.4,5.2,10.2,5.6l-83.6,96.8l18.7,3.5C1437.5,641.1,1436.7,642.2,1436.7,643.4z"/>
		<path class="st5" d="M1441.3,816.1c-6.8,0-12.2,2.5-12.2,5.7s5.5,5.7,12.2,5.7s12.2-2.6,12.2-5.7S1448.1,816.1,1441.3,816.1z"/>
		<path class="st5" d="M1453.5,493.6c0-3.1-5.4-5.7-12.2-5.7s-12.2,2.5-12.2,5.7s5.5,5.7,12.2,5.7S1453.5,496.7,1453.5,493.6z"/>
		<polygon class="st5" points="978.7,59.7 1030.2,0 997.1,0 961.7,41 770.8,5.3 775.4,0 742.2,0 730.8,13.2 		"/>
		<polygon class="st5" points="1920,113.2 1920,97.8 1843,83.3 1874.2,47.2 1734.1,20.9 1677.8,86.2 1804.9,110 1730.3,196.3 
			1920,231.9 1920,216.5 1770.2,188.4 1847,99.5 		"/>
		<polygon class="st5" points="1656.1,940 1678.2,940 1723.1,887.9 1850.4,911.8 1826,940 1848,940 1877,906.5 1711.8,875.5 		"/>
	</g>
	<g>
		<path class="st6" d="M727,482.5c-10,0-18.2,3.8-18.2,8.5s8.1,8.5,18.2,8.5s18.2-3.8,18.2-8.5S737.1,482.5,727,482.5z"/>
		<path class="st6" d="M603,245.4c-10,0-18.2,3.8-18.2,8.5c0,4.7,8.2,8.5,18.2,8.5s18.2-3.8,18.2-8.5S613.1,245.4,603,245.4z"/>
		<path class="st6" d="M1092.4,53.5c-10,0-18.2,3.8-18.2,8.5s8.2,8.5,18.2,8.5s18.2-3.8,18.2-8.5
			C1110.7,57.3,1102.5,53.5,1092.4,53.5z"/>
		<path class="st6" d="M1167.5,581.2c-10.1,0-18.3,3.8-18.3,8.5s8.2,8.5,18.3,8.5s18.2-3.8,18.2-8.5S1177.4,581.2,1167.5,581.2z"/>
		<path class="st6" d="M878.8,553.8c-10,0-18.2,3.8-18.2,8.5s8.1,8.5,18.2,8.5s18.2-3.8,18.2-8.5S888.8,553.8,878.8,553.8z"/>
		<path class="st6" d="M1033.4,397.9c-10,0-18.2,3.8-18.2,8.4s8.2,8.5,18.2,8.5s18.2-3.8,18.2-8.5
			C1051.6,401.7,1043.4,397.9,1033.4,397.9z"/>
		<path class="st6" d="M497.7,178.4c0-4.7-8.2-8.5-18.2-8.5s-18.2,3.8-18.2,8.5s8.1,8.4,18.2,8.4S497.7,183.1,497.7,178.4z"/>
		<polygon class="st6" points="1750,469.8 1839.3,486.6 1875.2,445 1785.9,428.3 		"/>
		<polygon class="st6" points="494.2,362.3 583.5,379 619.4,337.4 530.2,320.8 		"/>
		<polygon class="st6" points="247.3,668.7 290.8,676.8 308.3,656.6 264.8,648.4 		"/>
		<polygon class="st6" points="917,50.8 960.5,59 978,38.7 934.5,30.5 		"/>
		<polygon class="st6" points="1918.3,248.7 1874.8,240.5 1857.2,260.8 1900.8,268.9 		"/>
		<polygon class="st6" points="1596.2,812.5 1552.8,804.4 1535.3,824.7 1578.8,832.8 		"/>
		<path class="st6" d="M237.5,346.5l111.8,20.9l6.3-7.3l25.4,4.8l17.5-20.3l-25.4-4.8l35.8-41.4l-148.1-27.8l-26.1,30.2l-111.8-21
			l-59.6,69l148.2,27.8L237.5,346.5z M271,281.8l114,21.4l-29,33.5l-1.1-0.2L338,356.1l-93.7-17.5l26.6-30.9l-19.2-3.6L271,281.8z
			 M245,312l2.2,0.4l-19.8,23l-2.2-0.5L245,312z M87.3,344.2l45.8-53.2l94.8,17.7l-26.7,30.9l19.3,3.6l-19.2,22.3L87.3,344.2z"/>
		<path class="st6" d="M1601.4,820.1l-59.6,69l148.2,27.8l59.5-69L1601.4,820.1z M1679.7,905.7l-114-21.3l45.9-53.2l114,21.4
			L1679.7,905.7z"/>
		<path class="st6" d="M358.1,51L210,23.1l-59.7,69l148.1,27.8L358.1,51z M174.4,87.4l45.9-53.2l114,21.4l-45.9,53.1L174.4,87.4z"/>
		<path class="st6" d="M242.6,580.6l39.5,7.4l59.5-69l-148.1-27.8l-1.5,1.7l-39.5-7.4l-59.6,69L241,582.3L242.6,580.6z M317.8,523.7
			L272,576.8l-22.4-4.2l45.9-53.1L317.8,523.7z M116.9,549.8l45.9-53.1l22.4,4.2L139.3,554L116.9,549.8z M157.9,555.5l44.4-51.5
			l74.5,14l-44.4,51.5L157.9,555.5z"/>
		<path class="st6" d="M1864.4,34.4L1716.3,6.6l-59.6,69l148.2,27.8L1864.4,34.4z M1680.6,70.9l45.9-53.1l114.1,21.4l-45.8,53.1
			L1680.6,70.9z"/>
		<path class="st6" d="M291.2,729.3l-38.1-7.2l-33.3,38.4l38.2,7.2l-18.6,21.5L387.6,817l59.5-69L299,720.2L291.2,729.3z
			 M233.2,757.9l25.5-29.6l28.7,5.4l-25.6,29.6L233.2,757.9z M309.3,731.3l114,21.4l-45.9,53.1l-114-21.3l11.7-13.6l27.2,5
			l33.2-38.4l-27.3-5.1L309.3,731.3z M322.3,740.3l-25.5,29.6l-17.8-3.4l25.6-29.6L322.3,740.3z"/>
		<polygon class="st6" points="699.5,0 737.4,7.1 691.5,60.2 577.5,38.9 611,0 591.2,0 553.6,43.6 701.7,71.3 761.3,2.4 748.6,0 		
			"/>
		<polygon class="st6" points="1920,890.4 1920,881.2 1918.1,880.8 1920,878.6 1920,855.6 1894.1,885.5 		"/>
		<polygon class="st6" points="1920,163.8 1920,154.5 1892.5,149.3 1832.9,218.4 1920,234.7 1920,225.5 1856.8,213.6 1902.7,160.5 
					"/>
		<polygon class="st6" points="1734,940 1754,940 1795.5,891.9 1909.4,913.2 1886.3,940 1906.2,940 1920,924 1920,906 1785.2,880.8 
					"/>
	</g>
	<g>
		<path class="st7" d="M1649.3,36.3L1468.9,2.5l-72.6,84l180.5,33.8L1649.3,36.3z M1425.4,80.8l55.8-64.7l139.1,26l-55.9,64.7
			L1425.4,80.8z"/>
		<path class="st7" d="M423.4,125.8l180.5,33.8l72.6-84L565.7,54.8l26.4-30.5L466.3,0.7l-50.7,58.6l56.1,10.5L423.4,125.8z
			 M647.4,81.3L591.5,146l-139-26l39.9-46.3l49,9.2l15.9-18.4L647.4,81.3z M498.3,67l10.1-11.7l34.5,6.5l-10.1,11.7L498.3,67z
			 M435.9,55.3l39-45.1l96.8,18.1l-20.5,23.8L496,41.8l-18.5,21.4L435.9,55.3z"/>
		<path class="st7" d="M1731.8,744.7L1606,721l-50.6,58.7l125.8,23.6L1731.8,744.7z M1575.6,775.7l38.9-45.1l96.9,18.1l-38.9,45.2
			L1575.6,775.7z"/>
		<path class="st7" d="M1902.1,33.2L1776.4,9.6l-50.7,58.6l125.9,23.6L1902.1,33.2z M1745.9,64.2l39-45.1l96.9,18.1l-38.9,45.1
			L1745.9,64.2z"/>
		<polygon class="st7" points="1356.6,0 1326.2,0 1337.9,2.2 1299,47.3 1202.1,29.2 1227.2,0 1210.5,0 1181.8,33.2 1307.6,56.7 		
			"/>
		<polygon class="st7" points="1707.2,819.9 1920,859.7 1920,837.3 1765.2,808.3 1877,678.9 1920,687 1920,664.5 1852.2,651.8 		"/>
		<path class="st7" d="M373.8,577.8l-99.9-18.7l-16.1,18.7l-92.3-17.3l-50.6,58.6l72.1,13.5l-31.8,36.8l120.1,22.5l-35,40.6
			l362.8,68l146-169l-362.9-68L373.8,577.8z M212.9,629.6l-5.6-1.1l7.2-8.3l5.6,1L212.9,629.6z M253.6,627.6l57.7,10.8l-10.5,12.1
			l-57.7-10.8L253.6,627.6z M286.3,572.7l79.1,14.8l-39.6,45.8l-66.4-12.4l31.9-36.9l-12.8-2.4L286.3,572.7z M135.2,615.1l38.9-45.1
			l77.7,14.5l-26,30.1l-20.1-3.8l-13,15L135.2,615.1z M175.5,665.4l26-30.1l5.6,1.1l-5.8,6.8l91.2,17.1l-20.1,23.3L175.5,665.4z"/>
		<polygon class="st7" points="807.1,49.3 798.3,47.7 652.3,216.6 1015.2,284.6 1032.1,265 1040.9,266.6 1186.9,97.6 824,29.7 		"/>
		<path class="st7" d="M543.9,249l-180.6-33.8l-58.9,68.2l-18.5-3.5l65.3-75.7l-250.5-47L0,273.9l120.1,22.5l-37.2,43.1l83.9,15.7
			l-55.6,64.4l120,22.5l-7.5,8.7l-60.3-11.3l-72.6,84l180.4,33.8l2.9-3.4l13.7,2.6l50.7-58.6l-8.1-1.5l14.6-16.8l82.7,15.5l7.9-9.1
			L706,536.6l146-169l-353.3-66.2L543.9,249z M461.8,331.3L408,393.6l-62.7-11.8l9.2-10.7l-20.5-3.8l43.6-50.5l-56.5-10.6l1-1.1
			L461.8,331.3z M182.2,528.9l39-45.1l77,14.4l-39,45.1L182.2,528.9z M229.8,463.1l85,15.9l-8.4,9.7l-85-15.9L229.8,463.1z
			 M280,451.2l4.7,0.9l14.8-17.1l57.8,10.8l-18.4,21.4l-62.5-11.7L280,451.2z M233.2,302l-80.9-15.1l15.4-17.9l80.9,15.1L233.2,302z
			 M250.5,320.9l14.8-17.2l29.2,5.5L256.7,353l-34.2-6.4l23-26.6L250.5,320.9z M277.5,356.8l37.8-43.8l42,7.9l-37.8,43.7
			L277.5,356.8z M368,439.9l-62.6-11.7l31.6-36.6l62.7,11.7L368,439.9z M296,293l-5.4,6.3l10.7,2l-1,1.1l-29.2-5.5l6.4-7.4L296,293z
			 M40.3,265.9L118,176l192.9,36.1l-53.8,62.3l-101.6-19L131.6,283L40.3,265.9z M111.9,333.7l28.9-33.4l90.3,16.9l-23,26.6
			l-27.2-5.1l-5.9,6.8L111.9,333.7z M245.6,444.8l13.6,2.5l-7.5,8.7l-13.6-2.5L245.6,444.8z M175.7,453l39.6,7.4l-14.1,16.4l8,1.5
			l-41.7,48.3l-47.6-8.9L175.7,453z"/>
		<polygon class="st7" points="350.5,795.8 288.3,784.2 256.9,820.5 335,835.2 354.5,812.6 416.6,824.3 448,787.9 370,773.3 		"/>
		<path class="st7" d="M135.5,136.4l78,14.6l2.2-2.5l47.5,8.9l26.4-30.6l16.3,3l3.9-4.5l40.1,7.5l50.6-58.6L306,56.5l11.5-13.3
			L191.7,19.6l-19.8,23l-16.5-3.1l-72.6,84.1l55,10.3L135.5,136.4z M250.7,143.8l-26.7-5l18.1-20.9l26.7,5L250.7,143.8z M210,91.2
			l25.6,4.8l-9.6,11.1l-25.6-4.8L210,91.2z M177.8,55l40,7.5l-16.6,19.2l-40-7.5L177.8,55z M232.3,65.2L258,70l-16.6,19.2l-25.6-4.8
			L232.3,65.2z M250.1,98.7l16.8,3.1l22.4-25.9l17.4,3.2l-28.1,32.5l-34.1-6.4L250.1,98.7z M274.8,73.2l-16.6,19.2l-2.3-0.4
			l16.6-19.2L274.8,73.2z M299.3,115.6l35.1-40.7l1.9,0.4l-35.2,40.6L299.3,115.6z M341.3,123.4l-25.7-4.8l39-45.1l25.7,4.8
			L341.3,123.4z M200.3,29.1l96.9,18.2l-5.7,6.6l-16.7-3.1l-3.9,4.5l-40.1-7.5l-4.5,5.2l-40-7.5L200.3,29.1z M111.8,117.8L145.3,79
			l50.2,9.4L182.9,103l-16-3L146,124.2L111.8,117.8z"/>
		<polygon class="st7" points="1854.4,434.2 1653.3,396.5 1697.4,345.4 1823.6,369.1 1896.4,285 1770.1,261.3 1792.3,235.6 
			1783.3,234 1792.3,223.6 1429.4,155.6 1283.4,324.6 1292.4,326.3 1283.4,336.6 1641.3,403.6 1502.4,564.5 1865.2,632.5 1920,569 
			1920,470.9 1920,446.5 1920,373.2 1908.9,371.1 		"/>
		<path class="st7" d="M1852.9,141.6l-50.6,58.6l117.7,22.1v-1.8v-6.7v-4.5l-19.6-3.7l19.6-22.7V162v-7v-0.8L1852.9,141.6z
			 M1875.8,206.2l-53.2-10l39.1-45.1l53.1,10L1875.8,206.2z"/>
		<path class="st7" d="M1585.3,860.4l-271.9-50.9L1200.7,940h421.6l10.6-12.3l65.4,12.3h28l68.7-79.5l-180.4-33.8L1585.3,860.4z
			 M1765.8,866.2l-55.9,64.8l-68.8-12.9l35.2-40.7l-70.3-13.2l20.7-24.1L1765.8,866.2z"/>
	</g>
</g>
</svg>
