<svg xmlns="http://www.w3.org/2000/svg" viewBox="0 0 72 72">
  <title>logo</title>
  <g id="logo" style="fill:#02ad90">
    <path d="M36,0A36,36,0,0,0,7,14.72H26.26l-6.12-3.81A29.68,29.68,0,0,1,64.4,44.67h-18L57.82,29.6a.77.77,0,0,0,.14-.44V26.61h0V21.74a.72.72,0,0,0-.72-.72H39.08a.71.71,0,0,0-.5.21l-10.4,10.4-10.4-10.4a.71.71,0,0,0-.5-.21h-14a34.93,34.93,0,0,0-2.21,6.31,36,36,0,0,0,64,30H45.74l6.12,3.81A29.68,29.68,0,0,1,7.6,27.33h7.07a.67.67,0,0,1,.5.21L24,36.34V50.2a.75.75,0,0,0,.72.78h7a.75.75,0,0,0,.71-.78V36.34l8.81-8.8a.67.67,0,0,1,.5-.21h9.94L36.11,47.87a.71.71,0,0,0,.14,1l2.59,2a.71.71,0,0,0,.44.15H68.73a34.93,34.93,0,0,0,2.21-6.31A36,36,0,0,0,36,0Z"/>
  </g>
</svg>
