<svg xmlns="http://www.w3.org/2000/svg" viewBox="0 0 96 96">
    <title>map</title>
    <g style="fill:#02ad90; fill-opacity:0.2">
        <rect x="47.32" y="-18.36" width="1.48" height="132.72" transform="translate(-19.86 47.23) rotate(-44.32)"/>
        <rect x="56.83" y="1.85" width="1.48" height="79.78" transform="translate(-12.78 52.09) rotate(-44.32)"/>
        <rect x="32.08" y="14.11" width="1.48" height="68.6" transform="translate(-24.48 36.7) rotate(-44.32)"/>
        <rect x="34.69" y="33.95" width="1.48" height="64.12" transform="translate(-36.04 43.53) rotate(-44.32)"/>
        <rect x="33.65" y="76.17" width="1.48" height="22.37" transform="translate(-51.24 48.87) rotate(-44.31)"/>
        <rect x="6.56" y="57.38" width="1.48" height="19.39" transform="translate(-44.78 24.18) rotate(-44.32)"/>
        <rect x="89.78" y="54.53" width="1.48" height="14.17" transform="translate(-17.29 80.77) rotate(-44.32)"/>
        <rect x="83.91" y="28.25" width="1.48" height="14.17" transform="translate(-0.6 69.19) rotate(-44.32)"/>
        <rect x="40.68" y="8.4" width="1.48" height="3.73" transform="translate(4.62 31.86) rotate(-44.32)"/>
        <polygon points="3.69 16.38 3.69 18.04 2.08 18.04 2.08 19.53 3.69 19.53 3.69 21.2 5.17 21.2 5.17 19.53 6.78 19.53 6.78 18.04 5.17 18.04 5.17 16.38 3.69 16.38"/>
        <polygon points="9.34 86.8 7.85 86.8 7.85 88.47 6.24 88.47 6.24 89.95 7.85 89.95 7.85 91.62 9.34 91.62 9.34 89.95 10.95 89.95 10.95 88.47 9.34 88.47 9.34 86.8"/>
        <polygon points="65.15 14.79 66.64 14.79 66.64 13.13 68.25 13.13 68.25 11.64 66.64 11.64 66.64 9.97 65.15 9.97 65.15 11.64 63.54 11.64 63.54 13.13 65.15 13.13 65.15 14.79"/>
        <polygon points="85.99 9.46 87.47 9.46 87.47 8.86 88.04 8.86 88.04 7.37 87.47 7.37 87.47 6.77 85.99 6.77 85.99 7.37 85.42 7.37 85.42 8.86 85.99 8.86 85.99 9.46"/>
        <polygon points="70.8 85.73 69.32 85.73 69.32 86.33 68.75 86.33 68.75 87.82 69.32 87.82 69.32 88.42 70.8 88.42 70.8 87.82 71.37 87.82 71.37 86.33 70.8 86.33 70.8 85.73"/>
        <polygon points="2.08 47.27 2.65 47.27 2.65 47.87 4.13 47.87 4.13 47.27 4.7 47.27 4.7 45.79 4.13 45.79 4.13 45.19 2.65 45.19 2.65 45.79 2.08 45.79 2.08 47.27"/>
        <polygon points="21.84 72.93 20.36 72.93 20.36 73.53 19.79 73.53 19.79 75.01 20.36 75.01 20.36 75.61 21.84 75.61 21.84 75.01 22.41 75.01 22.41 73.53 21.84 73.53 21.84 72.93"/>
    </g>
</svg>