<svg xmlns="http://www.w3.org/2000/svg" viewBox="0 0 90 60">
    <title>switcher</title>
    <g style="fill:rgba(0,0,0,0.075)">
        <path d="M22.71,27.68v-8h1.68v8Zm-8.41,0V20.61H12.62v7.07Zm2.52,0V18.81H15.14v8.87Zm65.61,0V17.31H80.75V27.68Zm5,0V20H85.79v7.7Zm-32.81,0V19.12H53v8.56Zm-2.52,0V23.83H50.47v3.85Zm17.66,0v-6H68.13v6Zm-35.33,0V5.1H32.8V27.68Zm-5,0V16.39H27.75V27.68Zm2.52,0V11.6H30.28V27.68Zm-5.05,0V2.55H25.23V27.68Zm10.1,0V8.08H35.32v19.6Zm5,0V.87H40.37V27.68Zm-2.52,0V15.83H37.85V27.68Zm5,0V9.94H42.89V27.68Zm-32.81,0V15.83H10.09V27.68Zm-5,0V16.39H5V27.68Zm2.53,0V8.93H7.56V27.68Zm-5,0V3.3H2.52V27.68Zm17.67,0V14.34H20.19V27.68Zm-2.53,0V11.09H17.66V27.68Zm60.57,0V.87H78.23V27.68Zm-2.53,0V0H75.7V27.68Zm-5,0V15.75H70.65V27.68Zm2.53,0V5.1H73.17V27.68Zm-73.18,0V15.12H0V27.68Zm83.27,0V3.82H83.27V27.68Zm5,0V12.86H88.32V27.68Zm-25.23,0V3.3H63.09V27.68Zm-7.58,0V5.1H55.51V27.68Zm2.52,0V8.93H58V27.68Zm-10.08,0V6.88H47.94v20.8Zm17.66,0V11.6H65.61V27.68Zm-5,0V14.34H60.56V27.68Zm-15.15,0V2.55H45.42V27.68ZM60.56,31V49h1.69V31Zm2.53,0V45.49h1.68V31Zm2.52,0v8.73h1.68V31ZM58,31V53.73h1.68V31Zm-2.52,0V49.46h1.68V31Zm12.62,0v6.37h1.68V31ZM47.94,31V53.73h1.69V31Zm2.53,0V41.43h1.68V31ZM53,31V45h1.68V31Zm20.18,0V48.44h1.69V31Zm-2.52,0V57.62h1.68V31Zm15.14,0V53.73h1.69V31ZM90,31H88.32v7.64H90Zm-9.25,0V60h1.68V31Zm2.52,0V45.49H85V31ZM45.42,31V54.43H47.1V31Zm32.81,0V53h1.68V31ZM75.7,31V42.69h1.68V31Zm-58,0V42.36h1.68V31Zm-2.52,0V54.43h1.68V31Zm5.05,0V52.91h1.68V31ZM0,31V56.6H1.68V31Zm42.89,0V48.44h1.69V31ZM12.62,31V57.62H14.3V31ZM7.56,31V53.73H9.25V31Zm-5,0V44.3H4.2V31ZM5,31V48.44H6.72V31Zm5.05,0V58.64h1.68V31Zm25.23,0V49.46H37V31Zm2.53,0V42h1.68V31Zm2.52,0V55.22h1.68V31ZM32.8,31V57.62h1.68V31Zm-2.52,0v8.73H32V31Zm-5.05,0V45.49h1.68V31Zm2.52,0V53.73h1.69V31Zm-5,0V49.46h1.68V31Z"/>
    </g>
</svg>