<svg xmlns="http://www.w3.org/2000/svg" viewBox="0 0 144 36">
  <title>YRIS</title>
  <g id="YRIS" style="fill: #02ad90">
    <path d="M11.25.18A42.17,42.17,0,0,1,18.91.7a3.82,3.82,0,0,1,1.93.9,2,2,0,0,1,.73,1.52A2.13,2.13,0,0,1,21,4.45a3.09,3.09,0,0,0-.82,1.48,6,6,0,0,0,1.46,2.89c.63.86,1.23,1.29,1.79,1.29a1.71,1.71,0,0,0,1-.39,8.82,8.82,0,0,0,1.33-1.4,3.55,3.55,0,0,0,1-2,1.68,1.68,0,0,0-.11-.68,9.71,9.71,0,0,0-.84-1.08A2.26,2.26,0,0,1,25.36,3Q25.36.21,33.2.2A25.73,25.73,0,0,1,39,.6a2.73,2.73,0,0,1,1.4,1,2.38,2.38,0,0,1,.55,1.51,1.92,1.92,0,0,1-.64,1.56,5,5,0,0,1-2.23.8,5.91,5.91,0,0,0-2.53,1.09,43.57,43.57,0,0,0-3.95,3.84,27.59,27.59,0,0,0-4.34,5.44A12.32,12.32,0,0,0,26.36,21c0,1.94.08,3.74.23,5.4a5.43,5.43,0,0,0,.49,2.13,3.72,3.72,0,0,0,1.48,1.17c1.25.63,1.87,1.43,1.87,2.38q0,3.42-10.29,3.42a38.68,38.68,0,0,1-8-.8C10,34.27,9,33.37,9,32c0-1,.64-1.79,1.94-2.24a2.88,2.88,0,0,0,1.82-1.28q.82-1.74.82-8.2a9.55,9.55,0,0,0-.41-3.13,12,12,0,0,0-1.79-2.9,65.12,65.12,0,0,0-6-6.66A7.56,7.56,0,0,0,2.82,5.88,9.35,9.35,0,0,1,.72,5,2,2,0,0,1,0,3.34C0,2.22.86,1.41,2.59.92A34.89,34.89,0,0,1,11.25.18Z"/>
    <path d="M61.31,20.59c-.65,0-1.06.19-1.24.58a8,8,0,0,0-.27,2.69,23.65,23.65,0,0,0,.41,5,1.69,1.69,0,0,0,.39.77,3.77,3.77,0,0,0,1,.68,2.5,2.5,0,0,1,1.54,2.19c0,1.11-.72,1.89-2.14,2.35a26.4,26.4,0,0,1-7.24.69q-9.48,0-9.48-3.52a1.62,1.62,0,0,1,.28-1,6,6,0,0,1,1.28-1,3.73,3.73,0,0,0,1.53-1.73,12.45,12.45,0,0,0,.55-3.43Q48,23.08,48,12.07a20.36,20.36,0,0,0-.36-4.75,2.83,2.83,0,0,0-1.54-1.84,4.7,4.7,0,0,1-1.51-1,1.64,1.64,0,0,1-.38-1.14A2.15,2.15,0,0,1,45,1.75a4.46,4.46,0,0,1,2-1,12.7,12.7,0,0,1,3-.28c.56,0,2,.09,4.22.25.43,0,1.1.05,2,.05q2.29,0,6.14-.3C64,.34,65.17.28,65.82.28a15.07,15.07,0,0,1,9.07,2.59,7.55,7.55,0,0,1,3.23,6.48A8.1,8.1,0,0,1,77,13.56a7.14,7.14,0,0,1-3.1,2.86c-.55.26-.82.58-.82.95s.42.88,1.26,1.18a7.51,7.51,0,0,1,3.94,2.89,14.66,14.66,0,0,1,1.79,5.94,4.6,4.6,0,0,0,.67,2.15,4.7,4.7,0,0,0,2,.94,1.49,1.49,0,0,1,.82.64,1.85,1.85,0,0,1,.34,1.09,2.6,2.6,0,0,1-.62,1.58A4.28,4.28,0,0,1,81.7,35a14.5,14.5,0,0,1-5.89,1q-5,0-7.15-2.59A10.25,10.25,0,0,1,67,30.49,51.74,51.74,0,0,1,65.41,25a7.65,7.65,0,0,0-1.5-3.36A3.56,3.56,0,0,0,61.31,20.59ZM59.83,7.77l-.29,5.86v.22a1.9,1.9,0,0,0,.27,1.21,1.48,1.48,0,0,0,1.09.3,4.19,4.19,0,0,0,3.28-1.14,5.44,5.44,0,0,0,1-3.66c0-3.24-1.17-4.85-3.51-4.85a1.83,1.83,0,0,0-1.41.45A2.53,2.53,0,0,0,59.83,7.77Z"/>
    <path d="M98.88.18a28.58,28.58,0,0,1,5.51.5c2.32.45,3.48,1.42,3.48,2.89a1.52,1.52,0,0,1-.35,1.09,7.18,7.18,0,0,1-1.75,1.07,3.27,3.27,0,0,0-1.55,2.54,49.84,49.84,0,0,0-.37,7.64q0,9.61.48,11.89a2.5,2.5,0,0,0,.55,1.12,4.91,4.91,0,0,0,1.3.85A2.37,2.37,0,0,1,107.87,32c0,1.34-1,2.27-3.13,2.77a36.68,36.68,0,0,1-8.27.8q-8.35,0-8.35-3.11c0-.76.54-1.46,1.64-2.12a2.93,2.93,0,0,0,1.48-2.06,91.63,91.63,0,0,0,.49-12.17c0-4.29-.22-7-.67-8.24A3.74,3.74,0,0,0,89.35,6a6.19,6.19,0,0,1-1.41-1.13,1.81,1.81,0,0,1-.36-1.16A1.94,1.94,0,0,1,88.64,2,12.33,12.33,0,0,1,92.4.8,34.21,34.21,0,0,1,98.88.18Z"/>
    <path d="M127.71,0a25.51,25.51,0,0,1,6.91,1.28,3.19,3.19,0,0,0,.82.15A7.8,7.8,0,0,0,137,1a2.49,2.49,0,0,1,.87-.15c1.15,0,2.35.89,3.63,2.66a8.85,8.85,0,0,1,1.91,5.08,3.48,3.48,0,0,1-.86,2.38,2.72,2.72,0,0,1-2.09,1,3.11,3.11,0,0,1-1.67-.41A28.77,28.77,0,0,1,136,9.13q-3.08-2.82-6.05-2.82a3.59,3.59,0,0,0-2.29.68,2.17,2.17,0,0,0-.86,1.78q0,2.19,3.92,3.3a60.59,60.59,0,0,1,6.79,2.23Q144,17.42,144,23.48a10.53,10.53,0,0,1-4.46,8.75Q135,35.7,127.63,35.7a33.7,33.7,0,0,1-6.92-.77,16.64,16.64,0,0,1-5.25-1.8,6.89,6.89,0,0,1-2.21-3.5,15.27,15.27,0,0,1-1-5.27,2.9,2.9,0,0,1,.51-1.86,2,2,0,0,1,1.62-.8,2.54,2.54,0,0,1,1.87,1,37,37,0,0,1,2.53,3.54,7,7,0,0,0,3,2.34,10.3,10.3,0,0,0,4.27.93,6,6,0,0,0,3.07-.69A2,2,0,0,0,130.32,27a2.18,2.18,0,0,0-.92-1.74,9.43,9.43,0,0,0-3-1.36,39.82,39.82,0,0,1-5.58-2.07,16.83,16.83,0,0,1-3.59-2.38q-4-3.51-4-8a9.51,9.51,0,0,1,1-4.31,10.89,10.89,0,0,1,3-3.64A16,16,0,0,1,127.71,0Z"/>
  </g>
</svg>
